# xmcd CD database file
#
# Track frame offsets:
#	150
#	14896
#	31094
#	44787
#	62591
#	78141
#	90761
#	108201
#	120360
#	138416
#	152371
#	165918
#	178919
#	192805
#	206358
#	220716
#	240162
#	258861
#	273361
#	286082
#	300215
#
# Disc length: 4165 seconds
#
# Revision: 0
# Processed by: cddbd v1.5.2PL0 Copyright (c) Steve Scherf et al.
# Submitted via: CDex 1.51
#
DISCID=fb104315
DTITLE=Evelyn Bury - Buried Treasure
DYEAR=1900
DGENRE=Country
TTITLE0=Do The Kids Have Christmas In Heaven
TTITLE1=Don't Follow The Light
TTITLE2=Train
TTITLE3=More And More Away From You
TTITLE4=There's No Place Like Home
TTITLE5=Wish Me Well
TTITLE6=Queensland Rain
TTITLE7=Banjo Flat
TTITLE8=Gentle Annie Creek
TTITLE9=Hold On Me
TTITLE10=If Wishes Were Diamonds
TTITLE11=North Coast Man
TTITLE12=Singles Again
TTITLE13=I'm Married To My Bulldog Mac
TTITLE14=Why Do I Love The Wild Ones So
TTITLE15=One Day At A time
TTITLE16=Canecutters Dream
TTITLE17=Old Aust Eliza
TTITLE18=The Days Of Old Khancoban
TTITLE19=Darling
TTITLE20=Country Music Star
EXTD=
EXTT0=
EXTT1=
EXTT2=
EXTT3=
EXTT4=
EXTT5=
EXTT6=
EXTT7=
EXTT8=
EXTT9=
EXTT10=
EXTT11=
EXTT12=
EXTT13=
EXTT14=
EXTT15=
EXTT16=
EXTT17=
EXTT18=
EXTT19=
EXTT20=
PLAYORDER=
